<?xml version="1.0" standalone="no"?><!DOCTYPE svg PUBLIC "-//W3C//DTD SVG 1.1//EN" "http://www.w3.org/Graphics/SVG/1.1/DTD/svg11.dtd"><svg t="1754637101704" class="icon" viewBox="0 0 1024 1024" version="1.1" xmlns="http://www.w3.org/2000/svg" p-id="15279" xmlns:xlink="http://www.w3.org/1999/xlink" width="200" height="200"><path d="M920.100099 840.52688814L878.90460593 840.52688814 878.90460593 329.72164338C878.90460593 315.9911645 871.61479627 303.29426866 859.76276196 296.38022521L650.65350918 174.38069555C638.72886871 167.42001512 623.99320425 167.37337898 612.02196638 174.2570565 600.05506177 181.14181673 592.67314328 193.90595549 592.67314328 207.72211372L592.67314328 840.52688814 548.81833725 840.52688814 548.81833725 107.38333571C548.81833725 94.41096208 542.29901471 82.30297985 531.4753757 75.16009474 520.65173916 68.02154704 506.96614383 66.80142192 495.05450815 71.91944133L168.27016528 212.2544734C154.10234045 218.33883128 144.91611945 232.28947536 144.91611945 247.71945213L144.91611945 840.52688814 103.86800495 840.52688814C96.32136733 840.52688814 90.20408343 846.64812217 90.20408343 854.19771537L90.20408343 898.67752428C90.20408343 906.22711748 96.32136733 912.34835152 103.86800495 912.34835152L920.100099 912.34835152C927.6434852 912.34835152 933.76076828 906.22711748 933.76076828 898.67752428L933.76076828 854.19771537C933.76076828 846.64812217 927.6434852 840.52688814 920.100099 840.52688814L920.100099 840.52688814ZM699.19407672 312.56396736C699.19407672 305.01003676 705.31027793 298.88771837 712.85799905 298.88771837L756.25983081 298.88771837C763.80755277 298.88771837 769.92375314 305.01003676 769.92375314 312.56396736L769.92375314 356.00477312C769.92375314 363.55436631 763.80755277 369.67668471 756.25983081 369.67668471L712.85799905 369.67668471C705.31027793 369.67668471 699.19407672 363.55436631 699.19407672 356.00477312L699.19407672 312.56396736 699.19407672 312.56396736ZM699.19407672 421.94685878C699.19407672 414.39292653 705.31027793 408.27169249 712.85799905 408.27169249L756.25983081 408.27169249C763.80755277 408.27169249 769.92375314 414.39292653 769.92375314 421.94685878L769.92375314 465.38874724C769.92375314 472.93834045 763.80755277 479.05957448 756.25983081 479.05957448L712.85799905 479.05957448C705.31027793 479.05957448 699.19407672 472.93834045 699.19407672 465.38874724L699.19407672 421.94685878 699.19407672 421.94685878ZM699.19407672 531.32649467C699.19407672 523.77690065 705.31027793 517.65458308 712.85799905 517.65458308L756.25983081 517.65458308C763.80755277 517.65458308 769.92375314 523.77690065 769.92375314 531.32649467L769.92375314 574.76729796C769.92375314 582.32123021 763.80755277 588.4435486 756.25983081 588.4435486L712.85799905 588.4435486C705.31027793 588.4435486 699.19407672 582.32123021 699.19407672 574.76729796L699.19407672 531.32649467 699.19407672 531.32649467ZM699.19407672 640.70938444C699.19407672 633.15545219 705.31027793 627.03421815 712.85799905 627.03421815L756.25983081 627.03421815C763.80755277 627.03421815 769.92375314 633.15545219 769.92375314 640.70938444L769.92375314 684.15127208C769.92375314 691.70086775 763.80755277 697.82643837 756.25983081 697.82643837L712.85799905 697.82643837C705.31027793 697.82643837 699.19407672 691.70086775 699.19407672 684.15127208L699.19407672 640.70938444 699.19407672 640.70938444ZM699.19407672 750.09335857C699.19407672 742.53942797 705.31027793 736.41710793 712.85799905 736.41710793L756.25983081 736.41710793C763.80755277 736.41710793 769.92375314 742.53942797 769.92375314 750.09335857L769.92375314 793.53416267C769.92375314 801.08375752 763.80755277 807.20607592 756.25983081 807.20607592L712.85799905 807.20607592C705.31027793 807.20607592 699.19407672 801.08375752 699.19407672 793.53416267L699.19407672 750.09335857 699.19407672 750.09335857ZM376.74872564 203.17999324C376.74872564 195.63040004 382.86492602 189.5048286 390.41264634 189.5048286L433.81881467 189.5048286C441.36653498 189.5048286 447.48273535 195.63040004 447.48273535 203.17999324L447.48273535 246.62188169C447.48273535 254.17581394 441.36653498 260.29704799 433.81881467 260.29704799L390.41264634 260.29704799C382.86492602 260.29704799 376.74872564 254.17581394 376.74872564 246.62188169L376.74872564 203.17999324 376.74872564 203.17999324ZM376.74872564 312.56396736C376.74872564 305.01003676 382.86492602 298.88771837 390.41264634 298.88771837L433.81881467 298.88771837C441.36653498 298.88771837 447.48273535 305.01003676 447.48273535 312.56396736L447.48273535 356.00477312C447.48273535 363.55436631 441.36653498 369.67668471 433.81881467 369.67668471L390.41264634 369.67668471C382.86492602 369.67668471 376.74872564 363.55436631 376.74872564 356.00477312L376.74872564 312.56396736 376.74872564 312.56396736ZM376.74872564 421.94685878C376.74872564 414.39292653 382.86492602 408.27169249 390.41264634 408.27169249L433.81881467 408.27169249C441.36653498 408.27169249 447.48273535 414.39292653 447.48273535 421.94685878L447.48273535 465.38874724C447.48273535 472.93834045 441.36653498 479.05957448 433.81881467 479.05957448L390.41264634 479.05957448C382.86492602 479.05957448 376.74872564 472.93834045 376.74872564 465.38874724L376.74872564 421.94685878 376.74872564 421.94685878ZM376.74872564 531.32649467C376.74872564 523.77690065 382.86492602 517.65458308 390.41264634 517.65458308L433.81881467 517.65458308C441.36653498 517.65458308 447.48273535 523.77690065 447.48273535 531.32649467L447.48273535 574.76729796C447.48273535 582.32123021 441.36653498 588.4435486 433.81881467 588.4435486L390.41264634 588.4435486C382.86492602 588.4435486 376.74872564 582.32123021 376.74872564 574.76729796L376.74872564 531.32649467 376.74872564 531.32649467ZM376.74872564 640.70938444C376.74872564 633.15545219 382.86492602 627.03421815 390.41264634 627.03421815L433.81881467 627.03421815C441.36653498 627.03421815 447.48273535 633.15545219 447.48273535 640.70938444L447.48273535 684.15127208C447.48273535 691.70086775 441.36653498 697.82643837 433.81881467 697.82643837L390.41264634 697.82643837C382.86492602 697.82643837 376.74872564 691.70086775 376.74872564 684.15127208L376.74872564 640.70938444 376.74872564 640.70938444ZM376.74872564 750.09335857C376.74872564 742.53942797 382.86492602 736.41710793 390.41264634 736.41710793L433.81881467 736.41710793C441.36653498 736.41710793 447.48273535 742.53942797 447.48273535 750.09335857L447.48273535 793.53416267C447.48273535 801.08375752 441.36653498 807.20607592 433.81881467 807.20607592L390.41264634 807.20607592C382.86492602 807.20607592 376.74872564 801.08375752 376.74872564 793.53416267L376.74872564 750.09335857 376.74872564 750.09335857ZM245.16805631 312.56396736C245.16805631 305.01003676 251.28534103 298.88771837 258.83197864 298.88771837L302.23814532 298.88771837C309.78153152 298.88771837 315.90206601 305.01003676 315.90206601 312.56396736L315.90206601 356.00477312C315.90206601 363.55436631 309.78153152 369.67668471 302.23814532 369.67668471L258.83197864 369.67668471C251.28534103 369.67668471 245.16805631 363.55436631 245.16805631 356.00477312L245.16805631 312.56396736 245.16805631 312.56396736ZM245.16805631 421.94685878C245.16805631 414.39292653 251.28534103 408.27169249 258.83197864 408.27169249L302.23814532 408.27169249C309.78153152 408.27169249 315.90206601 414.39292653 315.90206601 421.94685878L315.90206601 465.38874724C315.90206601 472.93834045 309.78153152 479.05957448 302.23814532 479.05957448L258.83197864 479.05957448C251.28534103 479.05957448 245.16805631 472.93834045 245.16805631 465.38874724L245.16805631 421.94685878 245.16805631 421.94685878ZM245.16805631 531.32649467C245.16805631 523.77690065 251.28534103 517.65458308 258.83197864 517.65458308L302.23814532 517.65458308C309.78153152 517.65458308 315.90206601 523.77690065 315.90206601 531.32649467L315.90206601 574.76729796C315.90206601 582.32123021 309.78153152 588.4435486 302.23814532 588.4435486L258.83197864 588.4435486C251.28534103 588.4435486 245.16805631 582.32123021 245.16805631 574.76729796L245.16805631 531.32649467 245.16805631 531.32649467ZM245.16805631 640.70938444C245.16805631 633.15545219 251.28534103 627.03421815 258.83197864 627.03421815L302.23814532 627.03421815C309.78153152 627.03421815 315.90206601 633.15545219 315.90206601 640.70938444L315.90206601 684.15127208C315.90206601 691.70086775 309.78153152 697.82643837 302.23814532 697.82643837L258.83197864 697.82643837C251.28534103 697.82643837 245.16805631 691.70086775 245.16805631 684.15127208L245.16805631 640.70938444 245.16805631 640.70938444ZM245.16805631 750.09335857C245.16805631 742.53942797 251.28534103 736.41710793 258.83197864 736.41710793L302.23814532 736.41710793C309.78153152 736.41710793 315.90206601 742.53942797 315.90206601 750.09335857L315.90206601 793.53416267C315.90206601 801.08375752 309.78153152 807.20607592 302.23814532 807.20607592L258.83197864 807.20607592C251.28534103 807.20607592 245.16805631 801.08375752 245.16805631 793.53416267L245.16805631 750.09335857 245.16805631 750.09335857Z" p-id="15280"></path></svg>